<?xml version="1.0" encoding="utf-8"?>
<!-- Generator: Adobe Illustrator 27.3.1, SVG Export Plug-In . SVG Version: 6.00 Build 0)  -->
<svg version="1.1" id="Camada_1" xmlns="http://www.w3.org/2000/svg" xmlns:xlink="http://www.w3.org/1999/xlink" x="0px" y="0px"
	 viewBox="0 0 71 9" style="enable-background:new 0 0 71 9;" xml:space="preserve">
<style type="text/css">
	.st0{fill:none;stroke:#356F7D;stroke-width:3;stroke-linecap:square;}
</style>
<g id="Page-1">
	<path id="Line" class="st0" d="M15.2,4.5c0,0,1.4,1.6,2.8,1.6c1.4,0,2.8-1.6,2.8-1.6s1.4-1.6,2.8-1.6s2.8,1.6,2.8,1.6
		s1.4,1.6,2.8,1.6s2.8-1.6,2.8-1.6s1.4-1.6,2.8-1.6s2.8,1.6,2.8,1.6s1.4,1.6,2.8,1.6c1.4,0,2.8-1.6,2.8-1.6s1.4-1.6,2.8-1.6
		c1.4,0,2.8,1.6,2.8,1.6s1.4,1.6,2.8,1.6c1.4,0,2.8-1.6,2.8-1.6s1.4-1.6,2.8-1.6c1.4,0,2.8,1.6,2.8,1.6"/>
</g>
</svg>
